# xmcd
#
# Track frame offsets:
#	150
#	9012
#	31765
#	49877
#	71407
#	85520
#	96025
#	101622
#	112205
#	132447
#	136882
#	146387
#	156777
#	172542
#	190472
#
# Disc length: 2834 seconds
#
# Revision: 1
# Processed by: cddbd v1.5.1PL0 Copyright (c) Steve Scherf et al.
# Submitted via: EasyCDDAExtractor 5.1.0
#
DISCID=b70b100f
DTITLE=James Brown - Turn It Loose
DYEAR=1900
DGENRE=
TTITLE0=Give It Up, Turn It Loose
TTITLE1=Too Funky In Here
TTITLE2=Gonna Have A Funky Good Time
TTITLE3=Try Me
TTITLE4=Get On Good Foot
TTITLE5=Get Up Offa That Thing
TTITLE6=Hot Pants
TTITLE7=I Got The Feeling
TTITLE8=It's A Man's Man's Man's World
TTITLE9=Cold Sweat
TTITLE10=I Can't Stand It
TTITLE11=Papas Got A Brand New Bag
TTITLE12=I Feel Good
TTITLE13=Please Please Please
TTITLE14=Jam
EXTD=
EXTT0=
EXTT1=
EXTT2=
EXTT3=
EXTT4=
EXTT5=
EXTT6=
EXTT7=
EXTT8=
EXTT9=
EXTT10=
EXTT11=
EXTT12=
EXTT13=
EXTT14=
PLAYORDER=
